# xmcd
# 
# Track frame offsets:
#     150
#     17595
#     34301
#     51154
#     67026
#     87432
#     105265
#     120219
#     139340
#     156363
#     175870
#     192582
#     206897
# 
# Disc length: 3008
# 
# Revision: 10
# Processed by: cddbd v1.5.2PL0 Copyright (c) Steve Scherf et al.
# Submitted via: fre:ac v1.0.27
# 
DISCID=b70bbe0d
DTITLE=Plan B - The Defamation Of Strickland Banks
DYEAR=2010
DGENRE=Pop
TTITLE0=Love Goes Down
TTITLE1=Writing's On The Wall
TTITLE2=Stay Too Long
TTITLE3=She Said
TTITLE4=Welcome To Hell
TTITLE5=Hard Times
TTITLE6=The Recluse
TTITLE7=Traded In My Cigarettes
TTITLE8=Prayin'
TTITLE9=Darkest Place
TTITLE10=Free
TTITLE11=I Know A Song
TTITLE12=What You Gonna Do
EXTD=
EXTT0=
EXTT1=
EXTT2=
EXTT3=
EXTT4=
EXTT5=
EXTT6=
EXTT7=
EXTT8=
EXTT9=
EXTT10=
EXTT11=
EXTT12=
PLAYORDER=
